# xmcd
#
# Track frame offsets:
#	150
#	29251
#	54106
#	76572
#	94658
#	108394
#	136196
#	160933
#	179396
#	200616
#	224040
#	244861
#	275083
#	294037
#	309984
#
# Disc length: 4368 seconds
#
# Revision: 1
# Processed by: cddbd v1.4PL0 Copyright (c) Steve Scherf et al.
# Submitted via: audiograbber 1.80.04
#
DISCID=c9110e0f
DTITLE=Puff Daddy and The Family - No Way Out
DYEAR=1998
DGENRE=Hip-Hop
TTITLE0=No Way Out (Intro)
TTITLE1=Victory
TTITLE2=Been Around The World
TTITLE3=What You Gonna Do?
TTITLE4=Don't Stop What You're Doing
TTITLE5=If I Should Die Tonight (Interlude)
TTITLE6=Do You Know?
TTITLE7=Young G's
TTITLE8=I Love You Baby
TTITLE9=It's All About The Benjamins
TTITLE10=Pain
TTITLE11=Is This The End?
TTITLE12=Senorita
TTITLE13=I'll Be Missing You
TTITLE14=Can't Nobody Hold Me Down
EXTD=
EXTT0=
EXTT1=
EXTT2=
EXTT3=
EXTT4=
EXTT5=
EXTT6=
EXTT7=
EXTT8=
EXTT9=
EXTT10=
EXTT11=
EXTT12=
EXTT13=
EXTT14=
PLAYORDER=
